<svg width="256" height="110" viewBox="0 0 256 110" fill="none" xmlns="http://www.w3.org/2000/svg">
<g filter="url(#filter0_d_6_82)">
<path fill-rule="evenodd" clip-rule="evenodd" d="M51.613 61.6577C49.1397 59.7072 45.4279 58.1489 40.4778 56.9845L36.68 56.0884L24.64 53.1454C22.7738 52.6019 21.427 52.1031 20.629 51.6525C18.5392 50.5173 17.4951 48.7938 17.4951 46.4925C17.4951 43.9882 18.5546 42.0256 20.6737 40.629C21.7917 39.8911 23.123 39.3545 24.64 39.0002C26.7133 38.5793 32.024 38.1638 36.68 39.8688L37.1943 40.0786C40.4176 41.7109 42.1496 44.8 42.387 48.24H55.3145C55.0788 41.36 52.5367 36.2722 47.688 32.6774C44.4664 30.2884 40.7925 28.7524 36.68 27.9784C32.024 27.1611 26.7133 27.4544 24.64 27.7032C19.0724 28.3912 14.6571 30.1834 11.4149 33.0971C7.16995 36.9121 5.04919 41.7006 5.04919 47.466C5.04919 53.7836 7.21811 58.4276 11.556 61.398C13.9846 63.0819 18.362 64.6454 24.64 66.0936L36.68 68.88C38.7526 69.494 40.3883 70.1631 41.5786 70.8821C43.4568 72.0465 44.3976 73.7029 44.3976 75.8271C44.3959 79.4666 42.4781 81.9726 38.646 83.3125C38.0019 83.5276 37.3454 83.7034 36.68 83.8388C32.024 84.2599 26.7133 83.8985 24.64 83.6651C22.3507 83.0339 20.5567 81.995 19.2925 80.4934C18.073 79.0349 17.256 77.48 16.8398 74.04H3.99999C3.99999 80.92 6.42691 85.8564 11.2825 89.6851C14.7878 92.4474 19.2495 94.1262 24.64 94.8537C26.5467 94.9294 31.624 95.0581 36.68 94.9672C42.4128 94.281 47.0413 92.4509 50.5466 89.4564C55.0926 85.5692 57.3664 80.6844 57.3664 74.8037C57.3664 69.0675 55.4486 64.6866 51.613 61.6577Z" fill="url(#paint0_linear_6_82)"/>
<path d="M24.64 94.8537V101.56H36.68V94.9672C31.624 95.0581 26.5467 94.9294 24.64 94.8537Z" fill="url(#paint1_linear_6_82)"/>
<path d="M24.64 66.0936V83.6651C26.7133 83.8985 32.024 84.2599 36.68 83.8388V68.88L24.64 66.0936Z" fill="url(#paint2_linear_6_82)"/>
<path d="M36.68 56.0884V39.8688C32.024 38.1638 26.7133 38.5793 24.64 39.0002V53.1454L36.68 56.0884Z" fill="url(#paint3_linear_6_82)"/>
<path d="M36.68 27.9784V19H24.64V27.7032C26.7133 27.4544 32.024 27.1611 36.68 27.9784Z" fill="url(#paint4_linear_6_82)"/>
</g>
<path d="M79.482 100V90.9H83.408C84.422 90.9 85.2063 91.1037 85.761 91.511C86.3243 91.9183 86.606 92.4947 86.606 93.24C86.606 93.734 86.489 94.15 86.255 94.488C86.0297 94.826 85.7177 95.0817 85.319 95.255C84.929 95.4283 84.5 95.515 84.032 95.515L84.253 95.203C84.8337 95.203 85.332 95.294 85.748 95.476C86.1727 95.6493 86.502 95.9137 86.736 96.269C86.97 96.6157 87.087 97.049 87.087 97.569C87.087 98.3403 86.801 98.9383 86.229 99.363C85.6657 99.7877 84.812 100 83.668 100H79.482ZM80.444 99.207H83.655C84.4523 99.207 85.0633 99.0727 85.488 98.804C85.9127 98.5267 86.125 98.089 86.125 97.491C86.125 96.9017 85.9127 96.4727 85.488 96.204C85.0633 95.9267 84.4523 95.788 83.655 95.788H80.34V94.995H83.343C84.071 94.995 84.6343 94.8563 85.033 94.579C85.4403 94.3017 85.644 93.89 85.644 93.344C85.644 92.7893 85.4403 92.3777 85.033 92.109C84.6343 91.8317 84.071 91.693 83.343 91.693H80.444V99.207ZM93.3648 100V98.492L93.3258 98.245V95.723C93.3258 95.1423 93.1611 94.696 92.8318 94.384C92.5111 94.072 92.0301 93.916 91.3888 93.916C90.9468 93.916 90.5264 93.9897 90.1278 94.137C89.7291 94.2843 89.3911 94.4793 89.1138 94.722L88.6978 94.033C89.0444 93.7383 89.4604 93.513 89.9458 93.357C90.4311 93.1923 90.9424 93.11 91.4798 93.11C92.3638 93.11 93.0441 93.331 93.5208 93.773C94.0061 94.2063 94.2488 94.8693 94.2488 95.762V100H93.3648ZM91.0118 100.065C90.5004 100.065 90.0541 99.9827 89.6728 99.818C89.3001 99.6447 89.0141 99.4107 88.8148 99.116C88.6154 98.8127 88.5158 98.466 88.5158 98.076C88.5158 97.7207 88.5981 97.4 88.7628 97.114C88.9361 96.8193 89.2134 96.5853 89.5948 96.412C89.9848 96.23 90.5048 96.139 91.1548 96.139H93.5078V96.828H91.1808C90.5221 96.828 90.0628 96.945 89.8028 97.179C89.5514 97.413 89.4258 97.7033 89.4258 98.05C89.4258 98.44 89.5774 98.752 89.8808 98.986C90.1841 99.22 90.6088 99.337 91.1548 99.337C91.6748 99.337 92.1211 99.22 92.4938 98.986C92.8751 98.7433 93.1524 98.3967 93.3258 97.946L93.5338 98.583C93.3604 99.0337 93.0571 99.3933 92.6238 99.662C92.1991 99.9307 91.6618 100.065 91.0118 100.065ZM100.24 93.11C100.794 93.11 101.28 93.2183 101.696 93.435C102.12 93.643 102.45 93.9637 102.684 94.397C102.926 94.8303 103.048 95.3763 103.048 96.035V100H102.125V96.126C102.125 95.4067 101.943 94.865 101.579 94.501C101.223 94.1283 100.721 93.942 100.071 93.942C99.5854 93.942 99.1608 94.0417 98.7968 94.241C98.4414 94.4317 98.1641 94.7133 97.9648 95.086C97.7741 95.45 97.6788 95.892 97.6788 96.412V100H96.7558V93.175H97.6398V95.047L97.4968 94.696C97.7134 94.202 98.0601 93.8163 98.5368 93.539C99.0134 93.253 99.5811 93.11 100.24 93.11ZM106.269 98.232L106.295 97.049L110.546 93.175H111.677L108.674 96.048L108.154 96.49L106.269 98.232ZM105.541 100V90.354H106.464V100H105.541ZM110.832 100L107.985 96.451L108.583 95.736L111.963 100H110.832ZM116.946 100V90.9H117.739L121.899 97.998H121.483L125.604 90.9H126.397V100H125.474V92.343H125.695L121.899 98.843H121.444L117.622 92.343H117.869V100H116.946ZM133.444 100V98.492L133.405 98.245V95.723C133.405 95.1423 133.24 94.696 132.911 94.384C132.59 94.072 132.109 93.916 131.468 93.916C131.026 93.916 130.606 93.9897 130.207 94.137C129.808 94.2843 129.47 94.4793 129.193 94.722L128.777 94.033C129.124 93.7383 129.54 93.513 130.025 93.357C130.51 93.1923 131.022 93.11 131.559 93.11C132.443 93.11 133.123 93.331 133.6 93.773C134.085 94.2063 134.328 94.8693 134.328 95.762V100H133.444ZM131.091 100.065C130.58 100.065 130.133 99.9827 129.752 99.818C129.379 99.6447 129.093 99.4107 128.894 99.116C128.695 98.8127 128.595 98.466 128.595 98.076C128.595 97.7207 128.677 97.4 128.842 97.114C129.015 96.8193 129.293 96.5853 129.674 96.412C130.064 96.23 130.584 96.139 131.234 96.139H133.587V96.828H131.26C130.601 96.828 130.142 96.945 129.882 97.179C129.631 97.413 129.505 97.7033 129.505 98.05C129.505 98.44 129.657 98.752 129.96 98.986C130.263 99.22 130.688 99.337 131.234 99.337C131.754 99.337 132.2 99.22 132.573 98.986C132.954 98.7433 133.232 98.3967 133.405 97.946L133.613 98.583C133.44 99.0337 133.136 99.3933 132.703 99.662C132.278 99.9307 131.741 100.065 131.091 100.065ZM140.319 93.11C140.874 93.11 141.359 93.2183 141.775 93.435C142.2 93.643 142.529 93.9637 142.763 94.397C143.006 94.8303 143.127 95.3763 143.127 96.035V100H142.204V96.126C142.204 95.4067 142.022 94.865 141.658 94.501C141.303 94.1283 140.8 93.942 140.15 93.942C139.665 93.942 139.24 94.0417 138.876 94.241C138.521 94.4317 138.243 94.7133 138.044 95.086C137.853 95.45 137.758 95.892 137.758 96.412V100H136.835V93.175H137.719V95.047L137.576 94.696C137.793 94.202 138.139 93.8163 138.616 93.539C139.093 93.253 139.66 93.11 140.319 93.11ZM149.897 100V98.492L149.858 98.245V95.723C149.858 95.1423 149.693 94.696 149.364 94.384C149.043 94.072 148.562 93.916 147.921 93.916C147.479 93.916 147.059 93.9897 146.66 94.137C146.261 94.2843 145.923 94.4793 145.646 94.722L145.23 94.033C145.577 93.7383 145.993 93.513 146.478 93.357C146.963 93.1923 147.475 93.11 148.012 93.11C148.896 93.11 149.576 93.331 150.053 93.773C150.538 94.2063 150.781 94.8693 150.781 95.762V100H149.897ZM147.544 100.065C147.033 100.065 146.586 99.9827 146.205 99.818C145.832 99.6447 145.546 99.4107 145.347 99.116C145.148 98.8127 145.048 98.466 145.048 98.076C145.048 97.7207 145.13 97.4 145.295 97.114C145.468 96.8193 145.746 96.5853 146.127 96.412C146.517 96.23 147.037 96.139 147.687 96.139H150.04V96.828H147.713C147.054 96.828 146.595 96.945 146.335 97.179C146.084 97.413 145.958 97.7033 145.958 98.05C145.958 98.44 146.11 98.752 146.413 98.986C146.716 99.22 147.141 99.337 147.687 99.337C148.207 99.337 148.653 99.22 149.026 98.986C149.407 98.7433 149.685 98.3967 149.858 97.946L150.066 98.583C149.893 99.0337 149.589 99.3933 149.156 99.662C148.731 99.9307 148.194 100.065 147.544 100.065ZM156.2 102.587C155.576 102.587 154.978 102.496 154.406 102.314C153.834 102.132 153.37 101.872 153.015 101.534L153.483 100.832C153.804 101.118 154.198 101.343 154.666 101.508C155.143 101.681 155.645 101.768 156.174 101.768C157.041 101.768 157.678 101.564 158.085 101.157C158.492 100.758 158.696 100.134 158.696 99.285V97.582L158.826 96.412L158.735 95.242V93.175H159.619V99.168C159.619 100.347 159.329 101.209 158.748 101.755C158.176 102.31 157.327 102.587 156.2 102.587ZM156.031 99.74C155.381 99.74 154.796 99.6013 154.276 99.324C153.756 99.038 153.344 98.6437 153.041 98.141C152.746 97.6383 152.599 97.062 152.599 96.412C152.599 95.762 152.746 95.19 153.041 94.696C153.344 94.1933 153.756 93.8033 154.276 93.526C154.796 93.2487 155.381 93.11 156.031 93.11C156.638 93.11 157.184 93.2357 157.669 93.487C158.154 93.7383 158.54 94.111 158.826 94.605C159.112 95.099 159.255 95.7013 159.255 96.412C159.255 97.1227 159.112 97.725 158.826 98.219C158.54 98.713 158.154 99.09 157.669 99.35C157.184 99.61 156.638 99.74 156.031 99.74ZM156.122 98.921C156.625 98.921 157.071 98.817 157.461 98.609C157.851 98.3923 158.159 98.0977 158.384 97.725C158.609 97.3437 158.722 96.906 158.722 96.412C158.722 95.918 158.609 95.4847 158.384 95.112C158.159 94.7393 157.851 94.449 157.461 94.241C157.071 94.0243 156.625 93.916 156.122 93.916C155.628 93.916 155.182 94.0243 154.783 94.241C154.393 94.449 154.085 94.7393 153.86 95.112C153.643 95.4847 153.535 95.918 153.535 96.412C153.535 96.906 153.643 97.3437 153.86 97.725C154.085 98.0977 154.393 98.3923 154.783 98.609C155.182 98.817 155.628 98.921 156.122 98.921ZM165.086 100.065C164.376 100.065 163.752 99.9177 163.214 99.623C162.677 99.3197 162.257 98.908 161.953 98.388C161.65 97.8593 161.498 97.257 161.498 96.581C161.498 95.905 161.641 95.307 161.927 94.787C162.222 94.267 162.621 93.8597 163.123 93.565C163.635 93.2617 164.207 93.11 164.839 93.11C165.481 93.11 166.048 93.2573 166.542 93.552C167.045 93.838 167.439 94.2453 167.725 94.774C168.011 95.294 168.154 95.8963 168.154 96.581C168.154 96.6243 168.15 96.672 168.141 96.724C168.141 96.7673 168.141 96.815 168.141 96.867H162.2V96.178H167.647L167.283 96.451C167.283 95.957 167.175 95.5193 166.958 95.138C166.75 94.748 166.464 94.4447 166.1 94.228C165.736 94.0113 165.316 93.903 164.839 93.903C164.371 93.903 163.951 94.0113 163.578 94.228C163.206 94.4447 162.915 94.748 162.707 95.138C162.499 95.528 162.395 95.9743 162.395 96.477V96.62C162.395 97.14 162.508 97.5993 162.733 97.998C162.967 98.388 163.288 98.6957 163.695 98.921C164.111 99.1377 164.584 99.246 165.112 99.246C165.528 99.246 165.914 99.1723 166.269 99.025C166.633 98.8777 166.945 98.6523 167.205 98.349L167.725 98.947C167.422 99.311 167.041 99.5883 166.581 99.779C166.131 99.9697 165.632 100.065 165.086 100.065ZM178.561 93.11C179.116 93.11 179.597 93.2183 180.004 93.435C180.42 93.643 180.741 93.9637 180.966 94.397C181.2 94.8303 181.317 95.3763 181.317 96.035V100H180.394V96.126C180.394 95.4067 180.221 94.865 179.874 94.501C179.536 94.1283 179.055 93.942 178.431 93.942C177.963 93.942 177.556 94.0417 177.209 94.241C176.871 94.4317 176.607 94.7133 176.416 95.086C176.234 95.45 176.143 95.892 176.143 96.412V100H175.22V96.126C175.22 95.4067 175.047 94.865 174.7 94.501C174.353 94.1283 173.868 93.942 173.244 93.942C172.785 93.942 172.382 94.0417 172.035 94.241C171.688 94.4317 171.42 94.7133 171.229 95.086C171.047 95.45 170.956 95.892 170.956 96.412V100H170.033V93.175H170.917V95.021L170.774 94.696C170.982 94.202 171.316 93.8163 171.775 93.539C172.243 93.253 172.793 93.11 173.426 93.11C174.093 93.11 174.661 93.279 175.129 93.617C175.597 93.9463 175.9 94.4447 176.039 95.112L175.675 94.969C175.874 94.4143 176.225 93.968 176.728 93.63C177.239 93.2833 177.85 93.11 178.561 93.11ZM186.719 100.065C186.009 100.065 185.385 99.9177 184.847 99.623C184.31 99.3197 183.89 98.908 183.586 98.388C183.283 97.8593 183.131 97.257 183.131 96.581C183.131 95.905 183.274 95.307 183.56 94.787C183.855 94.267 184.254 93.8597 184.756 93.565C185.268 93.2617 185.84 93.11 186.472 93.11C187.114 93.11 187.681 93.2573 188.175 93.552C188.678 93.838 189.072 94.2453 189.358 94.774C189.644 95.294 189.787 95.8963 189.787 96.581C189.787 96.6243 189.783 96.672 189.774 96.724C189.774 96.7673 189.774 96.815 189.774 96.867H183.833V96.178H189.28L188.916 96.451C188.916 95.957 188.808 95.5193 188.591 95.138C188.383 94.748 188.097 94.4447 187.733 94.228C187.369 94.0113 186.949 93.903 186.472 93.903C186.004 93.903 185.584 94.0113 185.211 94.228C184.839 94.4447 184.548 94.748 184.34 95.138C184.132 95.528 184.028 95.9743 184.028 96.477V96.62C184.028 97.14 184.141 97.5993 184.366 97.998C184.6 98.388 184.921 98.6957 185.328 98.921C185.744 99.1377 186.217 99.246 186.745 99.246C187.161 99.246 187.547 99.1723 187.902 99.025C188.266 98.8777 188.578 98.6523 188.838 98.349L189.358 98.947C189.055 99.311 188.674 99.5883 188.214 99.779C187.764 99.9697 187.265 100.065 186.719 100.065ZM195.15 93.11C195.705 93.11 196.19 93.2183 196.606 93.435C197.031 93.643 197.36 93.9637 197.594 94.397C197.837 94.8303 197.958 95.3763 197.958 96.035V100H197.035V96.126C197.035 95.4067 196.853 94.865 196.489 94.501C196.134 94.1283 195.631 93.942 194.981 93.942C194.496 93.942 194.071 94.0417 193.707 94.241C193.352 94.4317 193.074 94.7133 192.875 95.086C192.684 95.45 192.589 95.892 192.589 96.412V100H191.666V93.175H192.55V95.047L192.407 94.696C192.624 94.202 192.97 93.8163 193.447 93.539C193.924 93.253 194.491 93.11 195.15 93.11ZM202.609 100.065C201.968 100.065 201.474 99.8917 201.127 99.545C200.78 99.1983 200.607 98.7087 200.607 98.076V91.667H201.53V98.024C201.53 98.4227 201.63 98.7303 201.829 98.947C202.037 99.1637 202.332 99.272 202.713 99.272C203.12 99.272 203.458 99.155 203.727 98.921L204.052 99.584C203.87 99.7487 203.649 99.87 203.389 99.948C203.138 100.026 202.878 100.065 202.609 100.065ZM199.385 93.942V93.175H203.61V93.942H199.385ZM211.839 100.078C211.163 100.078 210.513 99.9697 209.889 99.753C209.273 99.5277 208.797 99.2417 208.459 98.895L208.836 98.154C209.156 98.466 209.585 98.7303 210.123 98.947C210.669 99.155 211.241 99.259 211.839 99.259C212.411 99.259 212.874 99.1897 213.23 99.051C213.594 98.9037 213.858 98.7087 214.023 98.466C214.196 98.2233 214.283 97.9547 214.283 97.66C214.283 97.3047 214.179 97.0187 213.971 96.802C213.771 96.5853 213.507 96.4163 213.178 96.295C212.848 96.165 212.484 96.0523 212.086 95.957C211.687 95.8617 211.288 95.762 210.89 95.658C210.491 95.5453 210.123 95.398 209.785 95.216C209.455 95.034 209.187 94.7957 208.979 94.501C208.779 94.1977 208.68 93.8033 208.68 93.318C208.68 92.8673 208.797 92.4557 209.031 92.083C209.273 91.7017 209.642 91.3983 210.136 91.173C210.63 90.939 211.262 90.822 212.034 90.822C212.545 90.822 213.052 90.8957 213.555 91.043C214.057 91.1817 214.491 91.3767 214.855 91.628L214.53 92.395C214.14 92.135 213.724 91.9443 213.282 91.823C212.848 91.7017 212.428 91.641 212.021 91.641C211.475 91.641 211.024 91.7147 210.669 91.862C210.313 92.0093 210.049 92.2087 209.876 92.46C209.711 92.7027 209.629 92.98 209.629 93.292C209.629 93.6473 209.728 93.9333 209.928 94.15C210.136 94.3667 210.404 94.5357 210.734 94.657C211.072 94.7783 211.44 94.8867 211.839 94.982C212.237 95.0773 212.632 95.1813 213.022 95.294C213.42 95.4067 213.784 95.554 214.114 95.736C214.452 95.9093 214.72 96.1433 214.92 96.438C215.128 96.7327 215.232 97.1183 215.232 97.595C215.232 98.037 215.11 98.4487 214.868 98.83C214.625 99.2027 214.252 99.506 213.75 99.74C213.256 99.9653 212.619 100.078 211.839 100.078ZM217.058 102.587C216.737 102.587 216.429 102.535 216.135 102.431C215.849 102.327 215.602 102.171 215.394 101.963L215.823 101.274C215.996 101.439 216.182 101.564 216.382 101.651C216.59 101.746 216.819 101.794 217.071 101.794C217.374 101.794 217.634 101.707 217.851 101.534C218.076 101.369 218.288 101.075 218.488 100.65L218.93 99.649L219.034 99.506L221.842 93.175H222.752L219.333 100.819C219.142 101.261 218.93 101.612 218.696 101.872C218.47 102.132 218.223 102.314 217.955 102.418C217.686 102.531 217.387 102.587 217.058 102.587ZM218.878 100.195L215.732 93.175H216.694L219.476 99.441L218.878 100.195ZM225.808 100.065C225.245 100.065 224.712 99.987 224.209 99.831C223.707 99.6663 223.312 99.4627 223.026 99.22L223.442 98.492C223.72 98.7 224.075 98.882 224.508 99.038C224.942 99.1853 225.397 99.259 225.873 99.259C226.523 99.259 226.991 99.1593 227.277 98.96C227.563 98.752 227.706 98.479 227.706 98.141C227.706 97.8897 227.624 97.6947 227.459 97.556C227.303 97.4087 227.095 97.3003 226.835 97.231C226.575 97.153 226.285 97.088 225.964 97.036C225.644 96.984 225.323 96.9233 225.002 96.854C224.69 96.7847 224.404 96.685 224.144 96.555C223.884 96.4163 223.672 96.23 223.507 95.996C223.351 95.762 223.273 95.45 223.273 95.06C223.273 94.6873 223.377 94.3537 223.585 94.059C223.793 93.7643 224.097 93.5347 224.495 93.37C224.903 93.1967 225.397 93.11 225.977 93.11C226.419 93.11 226.861 93.1707 227.303 93.292C227.745 93.4047 228.109 93.5563 228.395 93.747L227.992 94.488C227.689 94.28 227.364 94.1327 227.017 94.046C226.671 93.9507 226.324 93.903 225.977 93.903C225.362 93.903 224.907 94.0113 224.612 94.228C224.326 94.436 224.183 94.7047 224.183 95.034C224.183 95.294 224.261 95.4977 224.417 95.645C224.582 95.7923 224.794 95.9093 225.054 95.996C225.323 96.074 225.613 96.139 225.925 96.191C226.246 96.243 226.562 96.308 226.874 96.386C227.195 96.4553 227.485 96.555 227.745 96.685C228.014 96.8063 228.226 96.984 228.382 97.218C228.547 97.4433 228.629 97.7423 228.629 98.115C228.629 98.5137 228.517 98.8603 228.291 99.155C228.075 99.441 227.754 99.6663 227.329 99.831C226.913 99.987 226.406 100.065 225.808 100.065ZM232.481 100.065C231.84 100.065 231.346 99.8917 230.999 99.545C230.652 99.1983 230.479 98.7087 230.479 98.076V91.667H231.402V98.024C231.402 98.4227 231.502 98.7303 231.701 98.947C231.909 99.1637 232.204 99.272 232.585 99.272C232.992 99.272 233.33 99.155 233.599 98.921L233.924 99.584C233.742 99.7487 233.521 99.87 233.261 99.948C233.01 100.026 232.75 100.065 232.481 100.065ZM229.257 93.942V93.175H233.482V93.942H229.257ZM238.262 100.065C237.552 100.065 236.928 99.9177 236.39 99.623C235.853 99.3197 235.433 98.908 235.129 98.388C234.826 97.8593 234.674 97.257 234.674 96.581C234.674 95.905 234.817 95.307 235.103 94.787C235.398 94.267 235.797 93.8597 236.299 93.565C236.811 93.2617 237.383 93.11 238.015 93.11C238.657 93.11 239.224 93.2573 239.718 93.552C240.221 93.838 240.615 94.2453 240.901 94.774C241.187 95.294 241.33 95.8963 241.33 96.581C241.33 96.6243 241.326 96.672 241.317 96.724C241.317 96.7673 241.317 96.815 241.317 96.867H235.376V96.178H240.823L240.459 96.451C240.459 95.957 240.351 95.5193 240.134 95.138C239.926 94.748 239.64 94.4447 239.276 94.228C238.912 94.0113 238.492 93.903 238.015 93.903C237.547 93.903 237.127 94.0113 236.754 94.228C236.382 94.4447 236.091 94.748 235.883 95.138C235.675 95.528 235.571 95.9743 235.571 96.477V96.62C235.571 97.14 235.684 97.5993 235.909 97.998C236.143 98.388 236.464 98.6957 236.871 98.921C237.287 99.1377 237.76 99.246 238.288 99.246C238.704 99.246 239.09 99.1723 239.445 99.025C239.809 98.8777 240.121 98.6523 240.381 98.349L240.901 98.947C240.598 99.311 240.217 99.5883 239.757 99.779C239.307 99.9697 238.808 100.065 238.262 100.065ZM251.737 93.11C252.292 93.11 252.773 93.2183 253.18 93.435C253.596 93.643 253.917 93.9637 254.142 94.397C254.376 94.8303 254.493 95.3763 254.493 96.035V100H253.57V96.126C253.57 95.4067 253.397 94.865 253.05 94.501C252.712 94.1283 252.231 93.942 251.607 93.942C251.139 93.942 250.732 94.0417 250.385 94.241C250.047 94.4317 249.783 94.7133 249.592 95.086C249.41 95.45 249.319 95.892 249.319 96.412V100H248.396V96.126C248.396 95.4067 248.223 94.865 247.876 94.501C247.529 94.1283 247.044 93.942 246.42 93.942C245.961 93.942 245.558 94.0417 245.211 94.241C244.864 94.4317 244.596 94.7133 244.405 95.086C244.223 95.45 244.132 95.892 244.132 96.412V100H243.209V93.175H244.093V95.021L243.95 94.696C244.158 94.202 244.492 93.8163 244.951 93.539C245.419 93.253 245.969 93.11 246.602 93.11C247.269 93.11 247.837 93.279 248.305 93.617C248.773 93.9463 249.076 94.4447 249.215 95.112L248.851 94.969C249.05 94.4143 249.401 93.968 249.904 93.63C250.415 93.2833 251.026 93.11 251.737 93.11Z" fill="#52838E"/>
<path d="M113.188 30.75C119.396 30.75 124.062 31.7708 127.188 33.8125C130.312 35.8542 131.875 38.875 131.875 42.875C131.875 44.3333 131.625 45.7083 131.125 47C130.625 48.25 129.917 49.2708 129 50.0625C128.542 50.4375 128.104 50.7708 127.688 51.0625C127.271 51.3542 126.792 51.625 126.25 51.875C125.75 52.0833 125.146 52.2917 124.438 52.5C123.771 52.7083 122.979 52.9375 122.062 53.1875C123.229 53.4375 124.229 53.6875 125.062 53.9375C125.938 54.1875 126.708 54.4792 127.375 54.8125C128.042 55.1042 128.646 55.4375 129.188 55.8125C129.729 56.1875 130.271 56.625 130.812 57.125C133.146 59.2083 134.312 61.8958 134.312 65.1875C134.312 67.1875 133.917 68.9792 133.125 70.5625C132.333 72.1458 131.188 73.5 129.688 74.625C128.188 75.7083 126.375 76.5417 124.25 77.125C122.125 77.7083 119.729 78 117.062 78H93.1875V76.6875C94.6458 76.6458 95.8125 76.5417 96.6875 76.375C97.6042 76.1667 98.3125 75.8333 98.8125 75.375C99.3125 74.9167 99.6458 74.2917 99.8125 73.5C99.9792 72.6667 100.062 71.6042 100.062 70.3125V38.5625C100.062 37.2292 99.9792 36.1667 99.8125 35.375C99.6875 34.5833 99.375 33.9583 98.875 33.5C98.375 33.0417 97.6667 32.7292 96.75 32.5625C95.875 32.3958 94.6875 32.2708 93.1875 32.1875V30.75H113.188ZM107.25 72.4375C107.25 73.6042 107.562 74.3958 108.188 74.8125C108.812 75.1875 109.958 75.375 111.625 75.375C112.875 75.375 113.979 75.3542 114.938 75.3125C115.938 75.2292 116.833 75.125 117.625 75C118.458 74.8333 119.208 74.625 119.875 74.375C120.542 74.125 121.167 73.8333 121.75 73.5C124.667 71.8333 126.125 69.0833 126.125 65.25C126.125 60.75 124.062 57.7083 119.938 56.125C119.271 55.875 118.542 55.6667 117.75 55.5C117 55.3333 116.125 55.2083 115.125 55.125C114.167 55 113.042 54.9167 111.75 54.875C110.458 54.7917 108.958 54.75 107.25 54.75V72.4375ZM114.125 51.875C117.5 51.875 120.083 51.1458 121.875 49.6875C123.708 48.1875 124.625 46.0208 124.625 43.1875C124.625 39.9375 123.562 37.5 121.438 35.875C119.312 34.25 116.167 33.4375 112 33.4375H108.875C107.792 33.4375 107.25 34.1458 107.25 35.5625V51.875H114.125ZM169.438 78H168.375L150.438 38.8125V67.5C150.438 69.3333 150.521 70.8333 150.688 72C150.896 73.125 151.25 74.0208 151.75 74.6875C152.25 75.3542 152.938 75.8333 153.812 76.125C154.688 76.4167 155.812 76.6042 157.188 76.6875V78H140.438V76.6875C141.896 76.5625 143.062 76.375 143.938 76.125C144.854 75.8333 145.542 75.3542 146 74.6875C146.5 74.0208 146.833 73.125 147 72C147.167 70.8333 147.25 69.3333 147.25 67.5V38.5625C147.25 37.2708 147.167 36.2292 147 35.4375C146.875 34.6458 146.562 34.0208 146.062 33.5625C145.604 33.1042 144.938 32.7917 144.062 32.625C143.188 32.4167 142.021 32.2708 140.562 32.1875V30.75H154.688L171.125 66.8125L187 30.75H201.125V32.1875C199.792 32.2708 198.729 32.4167 197.938 32.625C197.146 32.8333 196.521 33.1667 196.062 33.625C195.604 34.0833 195.292 34.7083 195.125 35.5C195 36.2917 194.938 37.3125 194.938 38.5625V70.3125C194.938 71.5625 195.021 72.5833 195.188 73.375C195.354 74.1667 195.646 74.7917 196.062 75.25C196.521 75.7083 197.146 76.0417 197.938 76.25C198.771 76.4583 199.833 76.6042 201.125 76.6875V78H181.125V76.6875C182.542 76.6042 183.667 76.4583 184.5 76.25C185.375 76.0417 186.042 75.6875 186.5 75.1875C186.958 74.6458 187.25 73.9375 187.375 73.0625C187.542 72.1458 187.625 70.9375 187.625 69.4375V37.125L169.438 78ZM236.5 45H234.75C234.458 43.9583 234.167 43.0417 233.875 42.25C233.625 41.4583 233.312 40.75 232.938 40.125C232.604 39.4583 232.229 38.875 231.812 38.375C231.396 37.8333 230.917 37.2708 230.375 36.6875C227.875 34.0625 224.958 32.75 221.625 32.75C219.417 32.75 217.625 33.3333 216.25 34.5C214.917 35.6667 214.25 37.25 214.25 39.25C214.25 41.2083 215.062 43.0417 216.688 44.75C218.312 46.4583 220.979 48.3333 224.688 50.375C229.438 52.9583 232.854 55.4792 234.938 57.9375C237.062 60.3958 238.125 63.0833 238.125 66C238.125 67.8333 237.75 69.5417 237 71.125C236.25 72.7083 235.229 74.0833 233.938 75.25C232.646 76.4167 231.104 77.3333 229.312 78C227.521 78.6667 225.604 79 223.562 79C222.104 79 220.667 78.875 219.25 78.625C217.833 78.375 216.458 77.9583 215.125 77.375C214.417 77.125 213.771 76.9375 213.188 76.8125C212.604 76.6458 212.125 76.5625 211.75 76.5625C211.208 76.5625 210.75 76.7917 210.375 77.25C210 77.7083 209.792 78.2708 209.75 78.9375H208.188L206.062 63.8125H207.688C209.479 68.1875 211.521 71.3958 213.812 73.4375C216.104 75.4375 218.875 76.4375 222.125 76.4375C224.75 76.4375 226.854 75.7083 228.438 74.25C230.062 72.7917 230.875 70.875 230.875 68.5C230.875 67.5833 230.771 66.7708 230.562 66.0625C230.396 65.3542 230.146 64.75 229.812 64.25C228.979 62.9167 227.646 61.5417 225.812 60.125C224.021 58.7083 221.854 57.2917 219.312 55.875C217.312 54.8333 215.604 53.7917 214.188 52.75C212.771 51.7083 211.604 50.625 210.688 49.5C209.812 48.375 209.167 47.2083 208.75 46C208.333 44.7917 208.125 43.4792 208.125 42.0625C208.125 38.1042 209.5 35.0208 212.25 32.8125C213.417 31.8542 214.708 31.125 216.125 30.625C217.542 30.0833 218.938 29.8125 220.312 29.8125C221.562 29.8125 222.812 29.9583 224.062 30.25C225.354 30.5 226.667 30.875 228 31.375C228.667 31.6667 229.271 31.875 229.812 32C230.354 32.125 230.812 32.1875 231.188 32.1875C232.354 32.1875 233.104 31.3958 233.438 29.8125H234.938L236.5 45Z" fill="#0EC4EC"/>
<defs>
<filter id="filter0_d_6_82" x="0" y="15" width="65.3664" height="94.5601" filterUnits="userSpaceOnUse" color-interpolation-filters="sRGB">
<feFlood flood-opacity="0" result="BackgroundImageFix"/>
<feColorMatrix in="SourceAlpha" type="matrix" values="0 0 0 0 0 0 0 0 0 0 0 0 0 0 0 0 0 0 127 0" result="hardAlpha"/>
<feOffset dx="2" dy="2"/>
<feGaussianBlur stdDeviation="3"/>
<feComposite in2="hardAlpha" operator="out"/>
<feColorMatrix type="matrix" values="0 0 0 0 0.0784314 0 0 0 0 0.0784314 0 0 0 0 0.0784314 0 0 0 0.25 0"/>
<feBlend mode="normal" in2="BackgroundImageFix" result="effect1_dropShadow_6_82"/>
<feBlend mode="normal" in="SourceGraphic" in2="effect1_dropShadow_6_82" result="shape"/>
</filter>
<linearGradient id="paint0_linear_6_82" x1="40.2175" y1="40.5" x2="6.21751" y2="95" gradientUnits="userSpaceOnUse">
<stop stop-color="#00D1FF"/>
<stop offset="1" stop-color="#6B6B6B"/>
</linearGradient>
<linearGradient id="paint1_linear_6_82" x1="30.7175" y1="34.5" x2="30.7175" y2="89" gradientUnits="userSpaceOnUse">
<stop stop-color="#01D1FF"/>
<stop offset="1" stop-color="#52838E"/>
</linearGradient>
<linearGradient id="paint2_linear_6_82" x1="30.7175" y1="34.5" x2="30.7175" y2="89" gradientUnits="userSpaceOnUse">
<stop stop-color="#01D1FF"/>
<stop offset="1" stop-color="#52838E"/>
</linearGradient>
<linearGradient id="paint3_linear_6_82" x1="30.7175" y1="34.5" x2="30.7175" y2="89" gradientUnits="userSpaceOnUse">
<stop stop-color="#01D1FF"/>
<stop offset="1" stop-color="#52838E"/>
</linearGradient>
<linearGradient id="paint4_linear_6_82" x1="30.7175" y1="34.5" x2="30.7175" y2="89" gradientUnits="userSpaceOnUse">
<stop stop-color="#01D1FF"/>
<stop offset="1" stop-color="#52838E"/>
</linearGradient>
</defs>
</svg>
