<svg width="454" height="225" viewBox="0 0 454 225" fill="none" xmlns="http://www.w3.org/2000/svg">
<path d="M446.161 0H7.65599C3.4277 0 0 3.42639 0 7.65306V217.347C0 221.574 3.4277 225 7.65599 225H446.161C450.389 225 453.817 221.574 453.817 217.347V7.65306C453.817 3.42639 450.389 0 446.161 0Z" fill="#FAFAFA"/>
<path d="M454 113.069L441.389 108.39C428.778 103.887 403.555 94.2681 378.334 89.7642C353.111 85.0859 327.889 85.0859 302.666 106.073C277.445 127.06 252.222 169.035 227 185.343C201.778 201.827 176.555 192.207 151.334 183.026C126.111 173.844 100.889 164.225 75.6666 159.722C50.4445 155.043 25.2223 155.043 12.6111 155.043H0V217.347C0 221.574 3.42772 225 7.65599 225H12.6111C25.2223 225 50.4445 225 75.6666 225C100.889 225 126.111 225 151.334 225C176.555 225 201.778 225 227 225C252.222 225 277.445 225 302.666 225C327.889 225 353.111 225 378.334 225C403.555 225 428.778 225 441.389 225H446.344C450.572 225 454 221.574 454 217.347V113.069Z" fill="#D6D6D6"/>
</svg>
