<svg width="256" height="91" viewBox="0 0 256 91" fill="none" xmlns="http://www.w3.org/2000/svg">
<g clip-path="url(#clip0_41_2)">
<g filter="url(#filter0_d_41_2)">
<path fill-rule="evenodd" clip-rule="evenodd" d="M51.613 42.6577C49.1397 40.7072 45.4279 39.1489 40.4778 37.9845L36.68 37.0884L24.64 34.1454C22.7738 33.6019 21.427 33.1031 20.629 32.6525C18.5392 31.5173 17.4951 29.7938 17.4951 27.4925C17.4951 24.9882 18.5546 23.0256 20.6737 21.629C21.7917 20.8911 23.123 20.3545 24.64 20.0002C26.7133 19.5793 32.024 19.1638 36.68 20.8688L37.1943 21.0786C40.4176 22.7109 42.1496 25.8 42.387 29.24H55.3145C55.0788 22.36 52.5367 17.2722 47.688 13.6774C44.4664 11.2884 40.7925 9.7524 36.68 8.9784C32.024 8.1611 26.7133 8.4544 24.64 8.7032C19.0724 9.3912 14.6571 11.1834 11.4149 14.0971C7.16994 17.9121 5.04918 22.7006 5.04918 28.466C5.04918 34.7836 7.2181 39.4276 11.556 42.398C13.9846 44.0819 18.362 45.6454 24.64 47.0936L36.68 49.88C38.7526 50.494 40.3883 51.1631 41.5786 51.8821C43.4568 53.0465 44.3976 54.7029 44.3976 56.8271C44.3959 60.4666 42.4781 62.9726 38.646 64.3125C38.0019 64.5276 37.3454 64.7034 36.68 64.8388C32.024 65.2599 26.7133 64.8985 24.64 64.6651C22.3507 64.0339 20.5567 62.995 19.2925 61.4934C18.073 60.0349 17.256 58.48 16.8398 55.04H3.99998C3.99998 61.92 6.42691 66.8564 11.2825 70.6851C14.7878 73.4474 19.2495 75.1262 24.64 75.8537C26.5467 75.9294 31.624 76.0581 36.68 75.9672C42.4128 75.281 47.0413 73.4509 50.5466 70.4564C55.0926 66.5692 57.3664 61.6844 57.3664 55.8037C57.3664 50.0675 55.4486 45.6866 51.613 42.6577Z" fill="url(#paint0_linear_41_2)"/>
<path d="M24.64 75.8537V82.56H36.68V75.9672C31.624 76.0581 26.5467 75.9294 24.64 75.8537Z" fill="url(#paint1_linear_41_2)"/>
<path d="M24.64 47.0936V64.6651C26.7133 64.8985 32.024 65.2599 36.68 64.8388V49.88L24.64 47.0936Z" fill="url(#paint2_linear_41_2)"/>
<path d="M36.68 37.0884V20.8688C32.024 19.1638 26.7133 19.5793 24.64 20.0002V34.1454L36.68 37.0884Z" fill="url(#paint3_linear_41_2)"/>
<path d="M36.68 8.9784V0H24.64V8.7032C26.7133 8.4544 32.024 8.1611 36.68 8.9784Z" fill="url(#paint4_linear_41_2)"/>
</g>
<path d="M79.482 81V71.9H83.408C84.422 71.9 85.2063 72.1037 85.761 72.511C86.3243 72.9183 86.606 73.4947 86.606 74.24C86.606 74.734 86.489 75.15 86.255 75.488C86.0297 75.826 85.7177 76.0817 85.319 76.255C84.929 76.4283 84.5 76.515 84.032 76.515L84.253 76.203C84.8337 76.203 85.332 76.294 85.748 76.476C86.1727 76.6493 86.502 76.9137 86.736 77.269C86.97 77.6157 87.087 78.049 87.087 78.569C87.087 79.3403 86.801 79.9383 86.229 80.363C85.6657 80.7877 84.812 81 83.668 81H79.482ZM80.444 80.207H83.655C84.4523 80.207 85.0633 80.0727 85.488 79.804C85.9127 79.5267 86.125 79.089 86.125 78.491C86.125 77.9017 85.9127 77.4727 85.488 77.204C85.0633 76.9267 84.4523 76.788 83.655 76.788H80.34V75.995H83.343C84.071 75.995 84.6343 75.8563 85.033 75.579C85.4403 75.3017 85.644 74.89 85.644 74.344C85.644 73.7893 85.4403 73.3777 85.033 73.109C84.6343 72.8317 84.071 72.693 83.343 72.693H80.444V80.207ZM93.3648 81V79.492L93.3258 79.245V76.723C93.3258 76.1423 93.1611 75.696 92.8318 75.384C92.5111 75.072 92.0301 74.916 91.3888 74.916C90.9468 74.916 90.5264 74.9897 90.1278 75.137C89.7291 75.2843 89.3911 75.4793 89.1138 75.722L88.6978 75.033C89.0444 74.7383 89.4604 74.513 89.9458 74.357C90.4311 74.1923 90.9424 74.11 91.4798 74.11C92.3638 74.11 93.0441 74.331 93.5208 74.773C94.0061 75.2063 94.2488 75.8693 94.2488 76.762V81H93.3648ZM91.0118 81.065C90.5004 81.065 90.0541 80.9827 89.6728 80.818C89.3001 80.6447 89.0141 80.4107 88.8148 80.116C88.6154 79.8127 88.5158 79.466 88.5158 79.076C88.5158 78.7207 88.5981 78.4 88.7628 78.114C88.9361 77.8193 89.2134 77.5853 89.5948 77.412C89.9848 77.23 90.5048 77.139 91.1548 77.139H93.5078V77.828H91.1808C90.5221 77.828 90.0628 77.945 89.8028 78.179C89.5514 78.413 89.4258 78.7033 89.4258 79.05C89.4258 79.44 89.5774 79.752 89.8808 79.986C90.1841 80.22 90.6088 80.337 91.1548 80.337C91.6748 80.337 92.1211 80.22 92.4938 79.986C92.8751 79.7433 93.1524 79.3967 93.3258 78.946L93.5338 79.583C93.3604 80.0337 93.0571 80.3933 92.6238 80.662C92.1991 80.9307 91.6618 81.065 91.0118 81.065ZM100.24 74.11C100.794 74.11 101.28 74.2183 101.696 74.435C102.12 74.643 102.45 74.9637 102.684 75.397C102.926 75.8303 103.048 76.3763 103.048 77.035V81H102.125V77.126C102.125 76.4067 101.943 75.865 101.579 75.501C101.223 75.1283 100.721 74.942 100.071 74.942C99.5854 74.942 99.1608 75.0417 98.7968 75.241C98.4414 75.4317 98.1641 75.7133 97.9648 76.086C97.7741 76.45 97.6788 76.892 97.6788 77.412V81H96.7558V74.175H97.6398V76.047L97.4968 75.696C97.7134 75.202 98.0601 74.8163 98.5368 74.539C99.0134 74.253 99.5811 74.11 100.24 74.11ZM106.269 79.232L106.295 78.049L110.546 74.175H111.677L108.674 77.048L108.154 77.49L106.269 79.232ZM105.541 81V71.354H106.464V81H105.541ZM110.832 81L107.985 77.451L108.583 76.736L111.963 81H110.832ZM116.946 81V71.9H117.739L121.899 78.998H121.483L125.604 71.9H126.397V81H125.474V73.343H125.695L121.899 79.843H121.444L117.622 73.343H117.869V81H116.946ZM133.444 81V79.492L133.405 79.245V76.723C133.405 76.1423 133.24 75.696 132.911 75.384C132.59 75.072 132.109 74.916 131.468 74.916C131.026 74.916 130.606 74.9897 130.207 75.137C129.808 75.2843 129.47 75.4793 129.193 75.722L128.777 75.033C129.124 74.7383 129.54 74.513 130.025 74.357C130.51 74.1923 131.022 74.11 131.559 74.11C132.443 74.11 133.123 74.331 133.6 74.773C134.085 75.2063 134.328 75.8693 134.328 76.762V81H133.444ZM131.091 81.065C130.58 81.065 130.133 80.9827 129.752 80.818C129.379 80.6447 129.093 80.4107 128.894 80.116C128.695 79.8127 128.595 79.466 128.595 79.076C128.595 78.7207 128.677 78.4 128.842 78.114C129.015 77.8193 129.293 77.5853 129.674 77.412C130.064 77.23 130.584 77.139 131.234 77.139H133.587V77.828H131.26C130.601 77.828 130.142 77.945 129.882 78.179C129.631 78.413 129.505 78.7033 129.505 79.05C129.505 79.44 129.657 79.752 129.96 79.986C130.263 80.22 130.688 80.337 131.234 80.337C131.754 80.337 132.2 80.22 132.573 79.986C132.954 79.7433 133.232 79.3967 133.405 78.946L133.613 79.583C133.44 80.0337 133.136 80.3933 132.703 80.662C132.278 80.9307 131.741 81.065 131.091 81.065ZM140.319 74.11C140.874 74.11 141.359 74.2183 141.775 74.435C142.2 74.643 142.529 74.9637 142.763 75.397C143.006 75.8303 143.127 76.3763 143.127 77.035V81H142.204V77.126C142.204 76.4067 142.022 75.865 141.658 75.501C141.303 75.1283 140.8 74.942 140.15 74.942C139.665 74.942 139.24 75.0417 138.876 75.241C138.521 75.4317 138.243 75.7133 138.044 76.086C137.853 76.45 137.758 76.892 137.758 77.412V81H136.835V74.175H137.719V76.047L137.576 75.696C137.793 75.202 138.139 74.8163 138.616 74.539C139.093 74.253 139.66 74.11 140.319 74.11ZM149.897 81V79.492L149.858 79.245V76.723C149.858 76.1423 149.693 75.696 149.364 75.384C149.043 75.072 148.562 74.916 147.921 74.916C147.479 74.916 147.059 74.9897 146.66 75.137C146.261 75.2843 145.923 75.4793 145.646 75.722L145.23 75.033C145.577 74.7383 145.993 74.513 146.478 74.357C146.963 74.1923 147.475 74.11 148.012 74.11C148.896 74.11 149.576 74.331 150.053 74.773C150.538 75.2063 150.781 75.8693 150.781 76.762V81H149.897ZM147.544 81.065C147.033 81.065 146.586 80.9827 146.205 80.818C145.832 80.6447 145.546 80.4107 145.347 80.116C145.148 79.8127 145.048 79.466 145.048 79.076C145.048 78.7207 145.13 78.4 145.295 78.114C145.468 77.8193 145.746 77.5853 146.127 77.412C146.517 77.23 147.037 77.139 147.687 77.139H150.04V77.828H147.713C147.054 77.828 146.595 77.945 146.335 78.179C146.084 78.413 145.958 78.7033 145.958 79.05C145.958 79.44 146.11 79.752 146.413 79.986C146.716 80.22 147.141 80.337 147.687 80.337C148.207 80.337 148.653 80.22 149.026 79.986C149.407 79.7433 149.685 79.3967 149.858 78.946L150.066 79.583C149.893 80.0337 149.589 80.3933 149.156 80.662C148.731 80.9307 148.194 81.065 147.544 81.065ZM156.2 83.587C155.576 83.587 154.978 83.496 154.406 83.314C153.834 83.132 153.37 82.872 153.015 82.534L153.483 81.832C153.804 82.118 154.198 82.343 154.666 82.508C155.143 82.681 155.645 82.768 156.174 82.768C157.041 82.768 157.678 82.564 158.085 82.157C158.492 81.758 158.696 81.134 158.696 80.285V78.582L158.826 77.412L158.735 76.242V74.175H159.619V80.168C159.619 81.347 159.329 82.209 158.748 82.755C158.176 83.31 157.327 83.587 156.2 83.587ZM156.031 80.74C155.381 80.74 154.796 80.6013 154.276 80.324C153.756 80.038 153.344 79.6437 153.041 79.141C152.746 78.6383 152.599 78.062 152.599 77.412C152.599 76.762 152.746 76.19 153.041 75.696C153.344 75.1933 153.756 74.8033 154.276 74.526C154.796 74.2487 155.381 74.11 156.031 74.11C156.638 74.11 157.184 74.2357 157.669 74.487C158.154 74.7383 158.54 75.111 158.826 75.605C159.112 76.099 159.255 76.7013 159.255 77.412C159.255 78.1227 159.112 78.725 158.826 79.219C158.54 79.713 158.154 80.09 157.669 80.35C157.184 80.61 156.638 80.74 156.031 80.74ZM156.122 79.921C156.625 79.921 157.071 79.817 157.461 79.609C157.851 79.3923 158.159 79.0977 158.384 78.725C158.609 78.3437 158.722 77.906 158.722 77.412C158.722 76.918 158.609 76.4847 158.384 76.112C158.159 75.7393 157.851 75.449 157.461 75.241C157.071 75.0243 156.625 74.916 156.122 74.916C155.628 74.916 155.182 75.0243 154.783 75.241C154.393 75.449 154.085 75.7393 153.86 76.112C153.643 76.4847 153.535 76.918 153.535 77.412C153.535 77.906 153.643 78.3437 153.86 78.725C154.085 79.0977 154.393 79.3923 154.783 79.609C155.182 79.817 155.628 79.921 156.122 79.921ZM165.086 81.065C164.376 81.065 163.752 80.9177 163.214 80.623C162.677 80.3197 162.257 79.908 161.953 79.388C161.65 78.8593 161.498 78.257 161.498 77.581C161.498 76.905 161.641 76.307 161.927 75.787C162.222 75.267 162.621 74.8597 163.123 74.565C163.635 74.2617 164.207 74.11 164.839 74.11C165.481 74.11 166.048 74.2573 166.542 74.552C167.045 74.838 167.439 75.2453 167.725 75.774C168.011 76.294 168.154 76.8963 168.154 77.581C168.154 77.6243 168.15 77.672 168.141 77.724C168.141 77.7673 168.141 77.815 168.141 77.867H162.2V77.178H167.647L167.283 77.451C167.283 76.957 167.175 76.5193 166.958 76.138C166.75 75.748 166.464 75.4447 166.1 75.228C165.736 75.0113 165.316 74.903 164.839 74.903C164.371 74.903 163.951 75.0113 163.578 75.228C163.206 75.4447 162.915 75.748 162.707 76.138C162.499 76.528 162.395 76.9743 162.395 77.477V77.62C162.395 78.14 162.508 78.5993 162.733 78.998C162.967 79.388 163.288 79.6957 163.695 79.921C164.111 80.1377 164.584 80.246 165.112 80.246C165.528 80.246 165.914 80.1723 166.269 80.025C166.633 79.8777 166.945 79.6523 167.205 79.349L167.725 79.947C167.422 80.311 167.041 80.5883 166.581 80.779C166.131 80.9697 165.632 81.065 165.086 81.065ZM178.561 74.11C179.116 74.11 179.597 74.2183 180.004 74.435C180.42 74.643 180.741 74.9637 180.966 75.397C181.2 75.8303 181.317 76.3763 181.317 77.035V81H180.394V77.126C180.394 76.4067 180.221 75.865 179.874 75.501C179.536 75.1283 179.055 74.942 178.431 74.942C177.963 74.942 177.556 75.0417 177.209 75.241C176.871 75.4317 176.607 75.7133 176.416 76.086C176.234 76.45 176.143 76.892 176.143 77.412V81H175.22V77.126C175.22 76.4067 175.047 75.865 174.7 75.501C174.353 75.1283 173.868 74.942 173.244 74.942C172.785 74.942 172.382 75.0417 172.035 75.241C171.688 75.4317 171.42 75.7133 171.229 76.086C171.047 76.45 170.956 76.892 170.956 77.412V81H170.033V74.175H170.917V76.021L170.774 75.696C170.982 75.202 171.316 74.8163 171.775 74.539C172.243 74.253 172.793 74.11 173.426 74.11C174.093 74.11 174.661 74.279 175.129 74.617C175.597 74.9463 175.9 75.4447 176.039 76.112L175.675 75.969C175.874 75.4143 176.225 74.968 176.728 74.63C177.239 74.2833 177.85 74.11 178.561 74.11ZM186.719 81.065C186.009 81.065 185.385 80.9177 184.847 80.623C184.31 80.3197 183.89 79.908 183.586 79.388C183.283 78.8593 183.131 78.257 183.131 77.581C183.131 76.905 183.274 76.307 183.56 75.787C183.855 75.267 184.254 74.8597 184.756 74.565C185.268 74.2617 185.84 74.11 186.472 74.11C187.114 74.11 187.681 74.2573 188.175 74.552C188.678 74.838 189.072 75.2453 189.358 75.774C189.644 76.294 189.787 76.8963 189.787 77.581C189.787 77.6243 189.783 77.672 189.774 77.724C189.774 77.7673 189.774 77.815 189.774 77.867H183.833V77.178H189.28L188.916 77.451C188.916 76.957 188.808 76.5193 188.591 76.138C188.383 75.748 188.097 75.4447 187.733 75.228C187.369 75.0113 186.949 74.903 186.472 74.903C186.004 74.903 185.584 75.0113 185.211 75.228C184.839 75.4447 184.548 75.748 184.34 76.138C184.132 76.528 184.028 76.9743 184.028 77.477V77.62C184.028 78.14 184.141 78.5993 184.366 78.998C184.6 79.388 184.921 79.6957 185.328 79.921C185.744 80.1377 186.217 80.246 186.745 80.246C187.161 80.246 187.547 80.1723 187.902 80.025C188.266 79.8777 188.578 79.6523 188.838 79.349L189.358 79.947C189.055 80.311 188.674 80.5883 188.214 80.779C187.764 80.9697 187.265 81.065 186.719 81.065ZM195.15 74.11C195.705 74.11 196.19 74.2183 196.606 74.435C197.031 74.643 197.36 74.9637 197.594 75.397C197.837 75.8303 197.958 76.3763 197.958 77.035V81H197.035V77.126C197.035 76.4067 196.853 75.865 196.489 75.501C196.134 75.1283 195.631 74.942 194.981 74.942C194.496 74.942 194.071 75.0417 193.707 75.241C193.352 75.4317 193.074 75.7133 192.875 76.086C192.684 76.45 192.589 76.892 192.589 77.412V81H191.666V74.175H192.55V76.047L192.407 75.696C192.624 75.202 192.97 74.8163 193.447 74.539C193.924 74.253 194.491 74.11 195.15 74.11ZM202.609 81.065C201.968 81.065 201.474 80.8917 201.127 80.545C200.78 80.1983 200.607 79.7087 200.607 79.076V72.667H201.53V79.024C201.53 79.4227 201.63 79.7303 201.829 79.947C202.037 80.1637 202.332 80.272 202.713 80.272C203.12 80.272 203.458 80.155 203.727 79.921L204.052 80.584C203.87 80.7487 203.649 80.87 203.389 80.948C203.138 81.026 202.878 81.065 202.609 81.065ZM199.385 74.942V74.175H203.61V74.942H199.385ZM211.839 81.078C211.163 81.078 210.513 80.9697 209.889 80.753C209.273 80.5277 208.797 80.2417 208.459 79.895L208.836 79.154C209.156 79.466 209.585 79.7303 210.123 79.947C210.669 80.155 211.241 80.259 211.839 80.259C212.411 80.259 212.874 80.1897 213.23 80.051C213.594 79.9037 213.858 79.7087 214.023 79.466C214.196 79.2233 214.283 78.9547 214.283 78.66C214.283 78.3047 214.179 78.0187 213.971 77.802C213.771 77.5853 213.507 77.4163 213.178 77.295C212.848 77.165 212.484 77.0523 212.086 76.957C211.687 76.8617 211.288 76.762 210.89 76.658C210.491 76.5453 210.123 76.398 209.785 76.216C209.455 76.034 209.187 75.7957 208.979 75.501C208.779 75.1977 208.68 74.8033 208.68 74.318C208.68 73.8673 208.797 73.4557 209.031 73.083C209.273 72.7017 209.642 72.3983 210.136 72.173C210.63 71.939 211.262 71.822 212.034 71.822C212.545 71.822 213.052 71.8957 213.555 72.043C214.057 72.1817 214.491 72.3767 214.855 72.628L214.53 73.395C214.14 73.135 213.724 72.9443 213.282 72.823C212.848 72.7017 212.428 72.641 212.021 72.641C211.475 72.641 211.024 72.7147 210.669 72.862C210.313 73.0093 210.049 73.2087 209.876 73.46C209.711 73.7027 209.629 73.98 209.629 74.292C209.629 74.6473 209.728 74.9333 209.928 75.15C210.136 75.3667 210.404 75.5357 210.734 75.657C211.072 75.7783 211.44 75.8867 211.839 75.982C212.237 76.0773 212.632 76.1813 213.022 76.294C213.42 76.4067 213.784 76.554 214.114 76.736C214.452 76.9093 214.72 77.1433 214.92 77.438C215.128 77.7327 215.232 78.1183 215.232 78.595C215.232 79.037 215.11 79.4487 214.868 79.83C214.625 80.2027 214.252 80.506 213.75 80.74C213.256 80.9653 212.619 81.078 211.839 81.078ZM217.058 83.587C216.737 83.587 216.429 83.535 216.135 83.431C215.849 83.327 215.602 83.171 215.394 82.963L215.823 82.274C215.996 82.439 216.182 82.564 216.382 82.651C216.59 82.746 216.819 82.794 217.071 82.794C217.374 82.794 217.634 82.707 217.851 82.534C218.076 82.369 218.288 82.075 218.488 81.65L218.93 80.649L219.034 80.506L221.842 74.175H222.752L219.333 81.819C219.142 82.261 218.93 82.612 218.696 82.872C218.47 83.132 218.223 83.314 217.955 83.418C217.686 83.531 217.387 83.587 217.058 83.587ZM218.878 81.195L215.732 74.175H216.694L219.476 80.441L218.878 81.195ZM225.808 81.065C225.245 81.065 224.712 80.987 224.209 80.831C223.707 80.6663 223.312 80.4627 223.026 80.22L223.442 79.492C223.72 79.7 224.075 79.882 224.508 80.038C224.942 80.1853 225.397 80.259 225.873 80.259C226.523 80.259 226.991 80.1593 227.277 79.96C227.563 79.752 227.706 79.479 227.706 79.141C227.706 78.8897 227.624 78.6947 227.459 78.556C227.303 78.4087 227.095 78.3003 226.835 78.231C226.575 78.153 226.285 78.088 225.964 78.036C225.644 77.984 225.323 77.9233 225.002 77.854C224.69 77.7847 224.404 77.685 224.144 77.555C223.884 77.4163 223.672 77.23 223.507 76.996C223.351 76.762 223.273 76.45 223.273 76.06C223.273 75.6873 223.377 75.3537 223.585 75.059C223.793 74.7643 224.097 74.5347 224.495 74.37C224.903 74.1967 225.397 74.11 225.977 74.11C226.419 74.11 226.861 74.1707 227.303 74.292C227.745 74.4047 228.109 74.5563 228.395 74.747L227.992 75.488C227.689 75.28 227.364 75.1327 227.017 75.046C226.671 74.9507 226.324 74.903 225.977 74.903C225.362 74.903 224.907 75.0113 224.612 75.228C224.326 75.436 224.183 75.7047 224.183 76.034C224.183 76.294 224.261 76.4977 224.417 76.645C224.582 76.7923 224.794 76.9093 225.054 76.996C225.323 77.074 225.613 77.139 225.925 77.191C226.246 77.243 226.562 77.308 226.874 77.386C227.195 77.4553 227.485 77.555 227.745 77.685C228.014 77.8063 228.226 77.984 228.382 78.218C228.547 78.4433 228.629 78.7423 228.629 79.115C228.629 79.5137 228.517 79.8603 228.291 80.155C228.075 80.441 227.754 80.6663 227.329 80.831C226.913 80.987 226.406 81.065 225.808 81.065ZM232.481 81.065C231.84 81.065 231.346 80.8917 230.999 80.545C230.652 80.1983 230.479 79.7087 230.479 79.076V72.667H231.402V79.024C231.402 79.4227 231.502 79.7303 231.701 79.947C231.909 80.1637 232.204 80.272 232.585 80.272C232.992 80.272 233.33 80.155 233.599 79.921L233.924 80.584C233.742 80.7487 233.521 80.87 233.261 80.948C233.01 81.026 232.75 81.065 232.481 81.065ZM229.257 74.942V74.175H233.482V74.942H229.257ZM238.262 81.065C237.552 81.065 236.928 80.9177 236.39 80.623C235.853 80.3197 235.433 79.908 235.129 79.388C234.826 78.8593 234.674 78.257 234.674 77.581C234.674 76.905 234.817 76.307 235.103 75.787C235.398 75.267 235.797 74.8597 236.299 74.565C236.811 74.2617 237.383 74.11 238.015 74.11C238.657 74.11 239.224 74.2573 239.718 74.552C240.221 74.838 240.615 75.2453 240.901 75.774C241.187 76.294 241.33 76.8963 241.33 77.581C241.33 77.6243 241.326 77.672 241.317 77.724C241.317 77.7673 241.317 77.815 241.317 77.867H235.376V77.178H240.823L240.459 77.451C240.459 76.957 240.351 76.5193 240.134 76.138C239.926 75.748 239.64 75.4447 239.276 75.228C238.912 75.0113 238.492 74.903 238.015 74.903C237.547 74.903 237.127 75.0113 236.754 75.228C236.382 75.4447 236.091 75.748 235.883 76.138C235.675 76.528 235.571 76.9743 235.571 77.477V77.62C235.571 78.14 235.684 78.5993 235.909 78.998C236.143 79.388 236.464 79.6957 236.871 79.921C237.287 80.1377 237.76 80.246 238.288 80.246C238.704 80.246 239.09 80.1723 239.445 80.025C239.809 79.8777 240.121 79.6523 240.381 79.349L240.901 79.947C240.598 80.311 240.217 80.5883 239.757 80.779C239.307 80.9697 238.808 81.065 238.262 81.065ZM251.737 74.11C252.292 74.11 252.773 74.2183 253.18 74.435C253.596 74.643 253.917 74.9637 254.142 75.397C254.376 75.8303 254.493 76.3763 254.493 77.035V81H253.57V77.126C253.57 76.4067 253.397 75.865 253.05 75.501C252.712 75.1283 252.231 74.942 251.607 74.942C251.139 74.942 250.732 75.0417 250.385 75.241C250.047 75.4317 249.783 75.7133 249.592 76.086C249.41 76.45 249.319 76.892 249.319 77.412V81H248.396V77.126C248.396 76.4067 248.223 75.865 247.876 75.501C247.529 75.1283 247.044 74.942 246.42 74.942C245.961 74.942 245.558 75.0417 245.211 75.241C244.864 75.4317 244.596 75.7133 244.405 76.086C244.223 76.45 244.132 76.892 244.132 77.412V81H243.209V74.175H244.093V76.021L243.95 75.696C244.158 75.202 244.492 74.8163 244.951 74.539C245.419 74.253 245.969 74.11 246.602 74.11C247.269 74.11 247.837 74.279 248.305 74.617C248.773 74.9463 249.076 75.4447 249.215 76.112L248.851 75.969C249.05 75.4143 249.401 74.968 249.904 74.63C250.415 74.2833 251.026 74.11 251.737 74.11Z" fill="#52838E"/>
<path d="M158.438 13.1875C157.479 13.3542 156.688 13.5417 156.062 13.75C155.479 13.9583 154.979 14.2292 154.562 14.5625C154.146 14.8958 153.792 15.3542 153.5 15.9375C153.208 16.5208 152.896 17.2708 152.562 18.1875C151.271 21.6875 150.146 24.7083 149.188 27.25C148.271 29.7917 147.438 32.1042 146.688 34.1875C145.938 36.2292 145.25 38.125 144.625 39.875C144.042 41.625 143.417 43.4583 142.75 45.375C142.083 47.2917 141.375 49.4167 140.625 51.75C139.875 54.0417 139 56.7292 138 59.8125H136.938L125.562 29.625L114.5 59.8125H113.438L99.6875 21.5C99.0208 19.7917 98.4375 18.4167 97.9375 17.375C97.4375 16.3333 96.9167 15.5208 96.375 14.9375C95.875 14.3125 95.2917 13.8958 94.625 13.6875C94 13.4375 93.2292 13.2708 92.3125 13.1875V11.75H109.812V13.1875C108.021 13.2708 106.792 13.4792 106.125 13.8125C105.458 14.1042 105.125 14.625 105.125 15.375C105.125 15.7917 105.188 16.2708 105.312 16.8125C105.479 17.3542 105.688 17.9792 105.938 18.6875L116.25 45.5625L123.875 25.375L121.5 19.5625C120.875 18.1458 120.333 17.0208 119.875 16.1875C119.458 15.3125 119 14.6667 118.5 14.25C118 13.7917 117.417 13.5 116.75 13.375C116.125 13.25 115.312 13.1875 114.312 13.1875V11.75H133.312V13.1875C131.438 13.1875 130.062 13.3958 129.188 13.8125C128.354 14.2292 127.938 14.8333 127.938 15.625C127.938 16 128.021 16.5 128.188 17.125C128.354 17.75 128.604 18.4583 128.938 19.25L129.812 21.4375L139.25 45.75L148.125 21.625C148.917 19.4583 149.312 17.6458 149.312 16.1875C149.312 15.2292 148.938 14.5417 148.188 14.125C147.479 13.6667 146.208 13.3542 144.375 13.1875V11.75H158.438V13.1875ZM209 13.1875C208.167 13.2292 207.458 13.3333 206.875 13.5C206.333 13.625 205.833 13.9375 205.375 14.4375C204.917 14.8958 204.458 15.5625 204 16.4375C203.583 17.2708 203.062 18.3958 202.438 19.8125L186.625 59.8125H185.562L168 20.625C167.208 19 166.521 17.7083 165.938 16.75C165.396 15.7917 164.854 15.0625 164.312 14.5625C163.812 14.0208 163.25 13.6667 162.625 13.5C162.042 13.2917 161.312 13.1875 160.438 13.1875V11.75H179.5V13.1875L177.375 13.25C175.167 13.375 174.062 14.125 174.062 15.5C174.062 15.7917 174.104 16.125 174.188 16.5C174.271 16.8333 174.417 17.2917 174.625 17.875C174.833 18.4583 175.125 19.1875 175.5 20.0625C175.875 20.9375 176.375 22.0417 177 23.375L187.75 47.5L198.188 21.375C198.688 20.25 199.042 19.2292 199.25 18.3125C199.5 17.3958 199.625 16.6458 199.625 16.0625C199.625 15.7292 199.521 15.375 199.312 15C199.104 14.5833 198.833 14.2708 198.5 14.0625C198.042 13.7292 197.542 13.5208 197 13.4375C196.5 13.3125 195.646 13.2292 194.438 13.1875V11.75H209V13.1875ZM253.5 46.625L250 59H211.688V57.6875C212.979 57.6042 214.021 57.4583 214.812 57.25C215.646 57.0417 216.271 56.7083 216.688 56.25C217.146 55.7917 217.458 55.1667 217.625 54.375C217.792 53.5833 217.875 52.5625 217.875 51.3125V19.5625C217.875 18.3125 217.792 17.2917 217.625 16.5C217.5 15.7083 217.208 15.0833 216.75 14.625C216.292 14.1667 215.646 13.8333 214.812 13.625C214.021 13.4167 212.979 13.2708 211.688 13.1875V11.75H231.75V13.1875C230.333 13.2708 229.188 13.4167 228.312 13.625C227.438 13.7917 226.771 14.125 226.312 14.625C225.854 15.0833 225.542 15.7083 225.375 16.5C225.208 17.2917 225.125 18.3125 225.125 19.5625V53.3125C225.125 53.9375 225.188 54.4583 225.312 54.875C225.479 55.25 225.792 55.5417 226.25 55.75C226.708 55.9583 227.333 56.1042 228.125 56.1875C228.917 56.2292 229.979 56.25 231.312 56.25H236.062C239.104 56.25 241.625 55.8958 243.625 55.1875C245.667 54.4792 247.333 53.3958 248.625 51.9375C249.125 51.3542 249.604 50.625 250.062 49.75C250.562 48.875 251.104 47.8333 251.688 46.625H253.5Z" fill="#0EC4EC"/>
</g>
<defs>
<filter id="filter0_d_41_2" x="-1.52588e-05" y="-4" width="65.3664" height="94.56" filterUnits="userSpaceOnUse" color-interpolation-filters="sRGB">
<feFlood flood-opacity="0" result="BackgroundImageFix"/>
<feColorMatrix in="SourceAlpha" type="matrix" values="0 0 0 0 0 0 0 0 0 0 0 0 0 0 0 0 0 0 127 0" result="hardAlpha"/>
<feOffset dx="2" dy="2"/>
<feGaussianBlur stdDeviation="3"/>
<feComposite in2="hardAlpha" operator="out"/>
<feColorMatrix type="matrix" values="0 0 0 0 0.0784314 0 0 0 0 0.0784314 0 0 0 0 0.0784314 0 0 0 0.25 0"/>
<feBlend mode="normal" in2="BackgroundImageFix" result="effect1_dropShadow_41_2"/>
<feBlend mode="normal" in="SourceGraphic" in2="effect1_dropShadow_41_2" result="shape"/>
</filter>
<linearGradient id="paint0_linear_41_2" x1="40.2175" y1="21.5" x2="6.21751" y2="76" gradientUnits="userSpaceOnUse">
<stop stop-color="#00D1FF"/>
<stop offset="1" stop-color="#6B6B6B"/>
</linearGradient>
<linearGradient id="paint1_linear_41_2" x1="30.7175" y1="15.5" x2="30.7175" y2="70" gradientUnits="userSpaceOnUse">
<stop stop-color="#01D1FF"/>
<stop offset="1" stop-color="#52838E"/>
</linearGradient>
<linearGradient id="paint2_linear_41_2" x1="30.7175" y1="15.5" x2="30.7175" y2="70" gradientUnits="userSpaceOnUse">
<stop stop-color="#01D1FF"/>
<stop offset="1" stop-color="#52838E"/>
</linearGradient>
<linearGradient id="paint3_linear_41_2" x1="30.7175" y1="15.5" x2="30.7175" y2="70" gradientUnits="userSpaceOnUse">
<stop stop-color="#01D1FF"/>
<stop offset="1" stop-color="#52838E"/>
</linearGradient>
<linearGradient id="paint4_linear_41_2" x1="30.7175" y1="15.5" x2="30.7175" y2="70" gradientUnits="userSpaceOnUse">
<stop stop-color="#01D1FF"/>
<stop offset="1" stop-color="#52838E"/>
</linearGradient>
<clipPath id="clip0_41_2">
<rect width="256" height="91" fill="white"/>
</clipPath>
</defs>
</svg>
